<svg xmlns="http://www.w3.org/2000/svg" viewBox="0 0 512 512">
  <defs>
    <linearGradient id="bg" x1="0%" y1="0%" x2="100%" y2="100%">
      <stop offset="0%" stop-color="#1e293b"/>
      <stop offset="100%" stop-color="#0f172a"/>
    </linearGradient>
    <linearGradient id="wand" x1="0%" y1="0%" x2="100%" y2="100%">
      <stop offset="0%" stop-color="#c084fc"/>
      <stop offset="100%" stop-color="#db2777"/>
    </linearGradient>
  </defs>
  <rect width="512" height="512" rx="112" fill="url(#bg)"/>
  <rect width="512" height="512" rx="112" fill="none" stroke="#334155" stroke-width="8"/>
  
  <g transform="translate(100, 100) scale(1.5)">
    <!-- Face Outline -->
    <path d="M104 24C60 24 24 60 24 104c0 40 28.5 73.3 66 82.5V192c0 8.8 7.2 16 16 16h6l-3.2 24c-.6 4.4 3 8 7.4 8h24c4.4 0 7.9-3.6 7.4-8L144.5 208h42.5c8.8 0 16-7.2 16-16v-8.4c37.5-12.7 65-48.4 65-88.6C268 50.9 223.1 24 186.5 24H104z" fill="none" stroke="#cbd5e1" stroke-width="12" stroke-linecap="round" />
    
    <!-- Sparkles -->
    <path d="M40 0l5 15 15 5-15 5-5 15-5-15-15-5 15-5z" fill="url(#wand)"/>
    <path d="M220 40l4 12 12 4-12 4-4 12-4-12-12-4 12-4z" fill="#93c5fd"/>
    <path d="M200 160l3 9 9 3-9 3-3 9-3-9-9-3 9-3z" fill="#fde047"/>
    
    <!-- Magic Wand -->
    <path d="M50 160 L140 70" stroke="url(#wand)" stroke-width="16" stroke-linecap="round"/>
    <circle cx="140" cy="70" r="12" fill="#fff"/>
  </g>
</svg>
